<svg width="14" height="13" viewBox="0 0 14 13" fill="none" xmlns="http://www.w3.org/2000/svg">
<path d="M12.9908 7.16767L12.1869 1.29279C12.1377 0.940067 11.9596 0.616622 11.6854 0.382132C11.4112 0.147642 11.0594 0.0179278 10.695 0.0169194H4.84832V0H1.38962C0.623558 0 0 0.631401 0 1.40738V5.67415C0 6.45013 0.623558 7.08153 1.38962 7.08153H3.78308L5.76083 12.0628C5.87232 12.3378 6.06568 12.5738 6.31592 12.7404C6.56616 12.907 6.8618 12.9964 7.16462 12.9972H7.51498C7.91368 12.9968 8.29593 12.8419 8.57785 12.5665C8.85977 12.2911 9.01834 11.9177 9.01876 11.5283V8.69041H11.6209C11.8173 8.69073 12.0116 8.65003 12.1907 8.57105C12.3698 8.49207 12.5296 8.37663 12.6593 8.23245C12.789 8.08827 12.8857 7.91869 12.9428 7.73505C13 7.55142 13.0164 7.35797 12.9908 7.16767ZM1.18728 5.67415V1.40738C1.18728 1.27357 1.28018 1.15975 1.38962 1.15975H3.66104V3.06164V5.92178H1.38962C1.28018 5.92178 1.18728 5.80796 1.18728 5.67415ZM11.7697 7.47375C11.7511 7.49469 11.7281 7.51144 11.7023 7.52286C11.6765 7.53428 11.6484 7.54009 11.6201 7.53989H8.54951C8.36159 7.53989 8.18135 7.61282 8.04847 7.74262C7.91558 7.87243 7.84093 8.04848 7.84093 8.23205V11.5306C7.84072 11.6141 7.80664 11.6942 7.74615 11.7533C7.68566 11.8124 7.60367 11.8457 7.51812 11.8459H7.16462C7.09945 11.8458 7.03583 11.8265 6.98204 11.7905C6.92826 11.7546 6.8868 11.7037 6.86307 11.6444L4.84832 6.57549V1.17051H10.695C10.7734 1.17073 10.8491 1.19864 10.9082 1.2491C10.9672 1.29956 11.0056 1.36916 11.0162 1.44507L11.8169 7.31994C11.8209 7.34739 11.8188 7.37537 11.8107 7.40194C11.8025 7.4285 11.7885 7.45301 11.7697 7.47375Z" fill="#FF5454"/>
</svg>
